<svg width="580" height="400" xmlns="http://www.w3.org/2000/svg">
 <!-- Created with Method Draw - http://github.com/duopixel/Method-Draw/ -->
 <g>
  <title>background</title>
  <rect fill="#fff" id="canvas_background" height="402" width="582" y="-1" x="-1"/>
  <g display="none" overflow="visible" y="0" x="0" height="100%" width="100%" id="canvasGrid">
   <rect fill="url(#gridpattern)" stroke-width="0" y="0" x="0" height="100%" width="100%"/>
  </g>
 </g>
 <g>
  <title>Layer 1</title>
  <path stroke-dasharray="5,5" d="m278,0c-1,0 -4,1 -5,2c-1,1 -1.693451,1.458804 -3,2c-0.923889,0.382683 -1.693451,0.458804 -3,1c-0.923889,0.382683 -2,0 -3,0c-1,0 -1.693451,0.458804 -3,1c-0.923889,0.382683 -2,0 -3,0c-1,0 -2,0 -3,0c-1,0 -2.076126,-0.382683 -3,0c-1.306564,0.541196 -2,1 -3,1c-1,0 -2.292892,-0.707107 -3,0c-0.707108,0.707107 -1,1 -2,1c-1,0 -4.053497,0.540494 -6,1c-2.176254,0.513743 -3.693436,2.458804 -5,3c-1.847763,0.765367 -3.292892,0.292893 -4,1c-0.707108,0.707107 -0.693436,1.458804 -2,2c-0.923874,0.382684 -2,0 -3,0c-1,0 -3.934143,1.144295 -6,2c-2.92157,1.210152 -5.228363,0.85195 -8,2c-1.306564,0.541197 -3.076126,1.617317 -4,2c-1.306564,0.541197 -2,1 -3,2c-1,1 -2.076126,0.617317 -3,1c-1.306564,0.541197 -2,1 -3,2c-1,1 -2,2 -3,3c-1,1 -2.076126,1.617317 -3,2c-1.306564,0.541197 -3,2 -4,3c-1,1 -1.693436,1.458805 -3,2c-0.923874,0.382683 -1,1 -2,1c-1,0 -2,0 -3,1c-1,1 -2.292892,0.292892 -3,1c-0.707108,0.707108 -1.076126,1.617317 -2,2c-1.306564,0.541195 -1.693436,1.458805 -3,2c-0.923874,0.382683 -0.693436,1.458805 -2,2c-0.923874,0.382683 -2.076126,0.617317 -3,1c-1.306564,0.541195 -2.076126,1.617317 -3,2c-1.306564,0.541195 -1.61731,1.076122 -2,2c-0.541199,1.306564 -2,2 -3,3c-1,1 -2,1 -3,2c-1,1 -1,2 -2,3c-1,1 -1.61731,2.076122 -2,3c-0.541199,1.306564 -2,2 -3,3c-1,1 -1.458801,1.693436 -2,3c-0.38269,0.923882 -0.292892,2.292892 -1,3c-0.707108,0.707108 -1.292892,0.292892 -2,1c-0.707108,0.707108 -1,2 -2,3c-1,1 -1.61731,2.076118 -2,3c-0.541199,1.306564 -2.458801,1.693436 -3,3c-0.38269,0.923882 -1.458801,1.693436 -2,3c-0.38269,0.923882 -1,1 -2,2c-1,1 -2.076126,1.617317 -3,2c-1.306564,0.541199 -1.076118,1.617317 -2,2c-1.306564,0.541199 -1.617317,2.076118 -2,3c-0.541199,1.306564 -1.292892,1.292892 -2,2c-0.707108,0.707108 0.382683,2.076118 0,3c-0.541199,1.306564 -1.458801,1.693436 -2,3c-0.382683,0.923882 -1,2 -1,3c0,1 0,2 0,3c0,1 0,2 0,4c0,1 0,2 0,3c0,1 0,2 0,3c0,1 1,2 1,3c0,1 1,2 1,3c0,1 0,2 0,3c0,1 -0.382683,2.076118 0,3c0.541199,1.306564 1,2 1,3c0,1 -0.382683,2.076126 0,3c0.541199,1.306564 0.617317,2.076126 1,3c0.541199,1.306564 0.617317,2.076126 1,3c0.541199,1.306564 1,2 1,3c0,1 0.458801,1.693436 1,3c0.382683,0.923874 0,2 0,3c0,1 -0.382683,2.076126 0,3c0.541199,1.306564 0.617317,2.076126 1,3c0.541199,1.306564 0.61731,2.076126 1,3c0.541199,1.306564 0.61731,2.076126 1,3c0.541199,1.306564 1.458801,1.693436 2,3c0.765366,1.847763 1.458801,2.693436 2,4c0.38269,0.923874 0.61731,2.076126 1,3c0.541199,1.306564 1.292892,1.292892 2,2c0.707108,0.707108 2.076126,0.61731 3,1c1.306564,0.541199 1.292892,1.292892 2,2c0.707108,0.707108 2,1 3,2c1,1 1.292892,1.292892 2,2c0.707108,0.707108 2,1 3,2c1,1 2,2 3,3c1,1 2.076126,1.61731 3,2c1.306564,0.541199 2,2 3,3c1,1 1.292892,1.292892 2,2c0.707108,0.707108 2.076126,0.61731 3,1c1.306564,0.541199 2.076126,1.61731 3,2c1.306564,0.541199 2.076126,0.61731 3,1c1.306564,0.541199 1.292892,1.292892 2,2c0.707108,0.707108 2,1 3,1c1,0 1.693436,0.458801 3,1c0.923874,0.38269 2,1 3,1c1,0 2,1 3,1c1,0 2.076126,-0.38269 3,0c1.306564,0.541199 2,1 3,1c1,0 2.076126,-0.38269 3,0c1.306564,0.541199 2,1 3,1c1,0 2,0 3,0c1,0 2,0 3,0c1,0 2.076126,-0.38269 3,0c1.306564,0.541199 2,1 3,1c1,0 2,0 3,0c1,0 2,0 3,0c1,0 2,0 3,0c1,0 1.693436,-0.458801 3,-1c1.847763,-0.765366 3.152237,-0.234634 5,-1c1.306564,-0.541199 2.852737,-1.173096 4,-2c1.813995,-1.307449 3.186005,-0.692551 5,-2c1.147263,-0.826904 2.796997,-2.2565 4,-3c2.689987,-1.662506 4.823746,-2.486252 7,-3c2.919754,-0.689255 5.053497,-0.540497 7,-1c2.176254,-0.513748 3,-2 4,-2c1,0 2,0 3,0c1,0 2,-1 3,-1c1,0 2,0 3,0c1,0 2.076111,0.38269 3,0c1.306549,-0.541199 2,-1 3,-1c1,0 2.076111,-0.61731 3,-1c1.306549,-0.541199 2.186005,-1.692551 4,-3c1.147278,-0.826904 2,-2 3,-3c1,-1 2,-2 3,-3c1,-1 2,-2 3,-3c1,-1 2,-2 3,-3c1,-1 2.458801,-1.693436 3,-3c0.38269,-0.923874 0.292908,-2.292892 1,-3c0.707092,-0.707108 0.61731,-1.076126 1,-2c0.541199,-1.306564 0.61731,-2.076126 1,-3c0.541199,-1.306564 1.486267,-1.823746 2,-4c0.459503,-1.946503 1,-3 1,-5c0,-1 -0.38269,-3.076126 0,-4c0.541199,-1.306564 1,-2 1,-3c0,-1 -0.38269,-2.076126 0,-3c0.541199,-1.306564 0.61731,-2.076126 1,-3c0.541199,-1.306564 1,-2 2,-3c1,-1 1,-2 2,-3c1,-1 2,-2 3,-3c1,-1 2,-2 3,-3c1,-1 2,-2 3,-3c1,-1 1.692535,-2.186005 3,-4c0.826904,-1.14727 2,-2 3,-3c1,-1 2,-2 3,-3c1,-1 2,-2 3,-3c1,-1 2,-2 3,-3c1,-1 2,-2 3,-3c1,-1 2.186005,-1.692551 4,-3c1.147278,-0.826904 2.852722,-2.173096 4,-3c1.813995,-1.307449 3.076111,-1.617317 4,-2c1.306549,-0.541199 2.076111,-0.617317 3,-1c1.306549,-0.541199 2,-2 4,-3c2,-1 2.934143,-2.144295 5,-3c2.92157,-1.210152 3.693451,-2.458801 5,-3c0.923889,-0.382683 3.076111,-0.617317 4,-1c1.306549,-0.541199 2.693451,-1.458801 4,-2c0.923889,-0.382683 2.076111,0.382683 3,0c1.306549,-0.541199 2,-1 3,-1c1,0 2,0 3,0c1,0 1.693451,-0.458801 3,-1c0.923889,-0.382683 2,0 3,0c1,0 2,0 3,0c1,0 2,0 3,0c1,0 2,0 3,0c1,0 2.026764,-0.229752 3,0c2.176239,0.513741 3,1 5,1c3,0 4.823761,0.486259 7,1c2.919739,0.689262 4.823761,0.486259 7,1c0.973236,0.229752 3.186005,0.692551 5,2c1.147278,0.826904 2,1 3,2c1,1 2,1 3,2c1,1 1.852722,2.173096 3,3c1.813995,1.307449 3.186005,1.692551 5,3c1.147278,0.826904 2,1 3,2c1,1 2,2 3,3c1,1 2.852722,2.173096 4,3c1.813995,1.307449 2.852722,2.173096 4,3c1.813995,1.307449 3,2 4,3c1,1 2,2 3,3c1,1 2,2 3,3c1,1 2,2 3,3c1,1 2,2 3,3c1,1 2.173096,1.85273 3,3c1.307465,1.813995 2,3 3,4c1,1 2,2 3,3c1,1 2,2 3,3c1,1 2,2 3,3c1,1 2,2 3,3c1,1 2.173096,1.852737 3,3c1.307465,1.813995 2,3 3,5c1,2 2.144287,3.934143 3,6c1.210144,2.92157 2.144287,4.934143 3,7c1.210144,2.92157 2.493469,3.878555 3,7c0.320374,1.974182 1.486267,2.823746 2,5c0.229767,0.973251 0.61731,2.076126 1,3c0.541199,1.306564 0.692535,2.186005 2,4c0.826904,1.147263 1,2 1,4c0,1 0,2 0,3c0,1 -0.458801,1.693436 -1,3c-0.765381,1.847763 -1,3 -2,4c-1,1 -2.458801,1.693436 -3,3c-0.38269,0.923874 -0.61731,2.076126 -1,3c-0.541199,1.306564 -1,2 -2,3c-1,1 -2,2 -3,3c-1,1 -2,2 -3,3c-1,1 -2.458801,1.693436 -3,3c-0.38269,0.923874 -1,2 -2,3c-1,1 -2,2 -3,3c-1,1 -2,2 -3,3c-1,1 -1.693451,2.458801 -3,3c-0.923889,0.38269 -2,1 -3,2c-1,1 -2.076111,1.61731 -3,2c-1.306549,0.541199 -1.693451,2.458801 -3,3c-0.923889,0.38269 -1.693451,1.458801 -3,2c-0.923889,0.38269 -2.693451,1.458801 -4,2c-0.923889,0.38269 -1.386871,1.917603 -4,3c-0.923889,0.38269 -1.693451,0.458801 -3,1c-0.923889,0.38269 -1.693451,0.458801 -3,1c-0.923889,0.38269 -1.693451,1.458801 -3,2c-0.923889,0.38269 -2,1 -3,1c-1,0 -2,1 -3,1c-1,0 -2.152252,0.234634 -4,1c-1.306549,0.541199 -2.053497,0.540497 -4,1c-2.176239,0.513748 -3,2 -5,2c-1,0 -3.076111,0.61731 -4,1c-1.306549,0.541199 -1.693451,1.458801 -3,2c-0.923889,0.38269 -2.186005,0.692551 -4,2c-1.147278,0.826904 -2.186005,1.692535 -4,3c-1.147278,0.826904 -2.693451,2.458801 -4,3c-0.923889,0.38269 -3.076111,0.61731 -4,1c-1.306549,0.541199 -1.693451,1.458801 -3,2c-0.923889,0.38269 -2.076111,0.61731 -3,1c-1.306549,0.541199 -2,1 -3,2c-1,1 -1.693451,1.458801 -3,2c-1.847748,0.765381 -3,1 -4,1c-2,0 -3,1 -4,1c-1,0 -2,0 -3,0c-1,0 -2,0 -3,0c-1,0 -2,0 -3,0c-1,0 -2,0 -3,0c-1,0 -2,0 -3,0c-1,0 -2.076111,-0.38269 -3,0c-1.306549,0.541199 -2,1 -3,1c-1,0 -2,0 -3,0c-1,0 -2,1 -3,1c-1,0 -1.693451,0.458801 -3,1c-0.923889,0.38269 -2.693451,0.458801 -4,1c-1.847748,0.765381 -3.076111,0.61731 -4,1c-1.306549,0.541199 -2.076111,0.61731 -3,1c-1.306549,0.541199 -2.186005,0.692535 -4,2c-1.147278,0.826904 -2.076111,0.61731 -3,1c-1.306549,0.541199 -2.076111,0.61731 -3,1c-1.306549,0.541199 -1.693451,1.458801 -3,2c-0.923889,0.38269 -1.693451,0.458801 -3,1c-0.923889,0.38269 -1.693451,0.458801 -3,1c-0.923889,0.38269 -2,0 -3,0c-1,0 -1.076111,0.61731 -2,1c-1.306549,0.541199 -4,2 -5,3c-1,1 -3,2 -4,3c-1,1 -2,2 -3,3c-1,1 -2.076111,1.61731 -3,2c-1.306549,0.541199 -1,2 -2,3c-1,1 -2,1 -3,2c-1,1 -1.693451,1.458801 -3,2c-0.923889,0.38269 -1.61731,1.076111 -2,2c-0.541199,1.306549 -1.292908,2.292908 -2,3c-0.707092,0.707092 -0.693451,1.458801 -2,2c-0.923889,0.38269 -1,1 -2,2c-1,1 -2,2 -3,3c-1,1 -2,2 -3,3c-1,1 -1.693451,1.458801 -3,2c-0.923889,0.38269 -1,1 -2,2c-1,1 -1.173096,1.852722 -2,3c-1.307465,1.813995 -1.458801,2.693451 -2,4c-0.38269,0.923889 0,2 0,4c0,2 0,3 0,4c0,2 -0.38269,3.076111 0,4c0.541199,1.306549 1,2 1,3c0,1 0,2 0,3c0,1 -0.229767,2.026764 0,3c0.513733,2.176239 1,3 1,4c0,1 0,2 0,3c0,1 0,2 0,3c0,1 0,2 0,3c0,1 0,2 0,3c0,1 0,2 0,3c0,1 0,2 0,3c0,1 0,2 0,3c0,1 0,2 0,3c0,1 0,2 0,3c0,1 0,2 0,3c0,1 -0.458801,1.693451 -1,3c-0.38269,0.923889 0,2 0,3c0,1 -1,2 -1,3c0,1 -0.458801,1.693451 -1,3c-0.38269,0.923889 0,2 0,3c0,1 0,2 0,3c0,1 -0.458801,1.693451 -1,3c-0.38269,0.923889 0.38269,2.076111 0,3c-0.541199,1.306549 -2.486267,0.823761 -3,3c-0.459503,1.946503 -1,3 -1,4l0,1" id="svg_1" stroke-width="12" stroke="#000" fill="none"/>
 </g>
</svg>